# xmcd
# 
# Track frame offsets:
#     150
#     43377
#     106450
#     154150
#     210670
#     260962
# 
# Disc length: 4105
# 
# Revision: 5
# Processed by: cddbd v1.5.2PL0 Copyright (c) Steve Scherf et al.
# Submitted via: fre:ac v1.0.31
# 
DISCID=5a100706
DTITLE=George Benson - Witchcraft
DYEAR=0
DGENRE=Jazz
TTITLE0=Witchcraft
TTITLE1=Love For Sales
TTITLE2=There Will Never Be Another You
TTITLE3=All Blues
TTITLE4=Lil' Darlin'
TTITLE5=Oleo
EXTD=
EXTT0=
EXTT1=
EXTT2=
EXTT3=
EXTT4=
EXTT5=
PLAYORDER=
